<svg width="292" height="36" viewBox="0 0 292 36" fill="none" xmlns="http://www.w3.org/2000/svg">
<mask id="mask0_141_693" style="mask-type:luminance" maskUnits="userSpaceOnUse" x="0" y="0" width="36" height="36">
<path d="M35.9913 0H0V35.9913H35.9913V0Z" fill="white"/>
</mask>
<g mask="url(#mask0_141_693)">
<mask id="mask1_141_693" style="mask-type:luminance" maskUnits="userSpaceOnUse" x="-1" y="-1" width="38" height="38">
<path d="M36.0896 -0.103027H-0.125V36.1116H36.0896V-0.103027Z" fill="white"/>
</mask>
<g mask="url(#mask1_141_693)">
<mask id="mask2_141_693" style="mask-type:luminance" maskUnits="userSpaceOnUse" x="-1" y="-1" width="38" height="38">
<path d="M36.0896 -0.103027H-0.125V36.1116H36.0896V-0.103027Z" fill="white"/>
</mask>
<g mask="url(#mask2_141_693)">
<mask id="mask3_141_693" style="mask-type:luminance" maskUnits="userSpaceOnUse" x="-1" y="-1" width="38" height="38">
<path d="M36.2171 -0.231934H-0.253906V36.2391H36.2171V-0.231934Z" fill="white"/>
</mask>
<g mask="url(#mask3_141_693)">
<path d="M17.9944 13.7983L18.8131 13.8769C19.086 13.9307 19.3465 14.0092 19.6029 14.1167L20.3307 14.5054C20.5581 14.6584 20.769 14.8321 20.9675 15.0306L21.4926 15.6674C21.6456 15.8948 21.7779 16.1388 21.8813 16.3951L22.1212 17.1849C22.1749 17.4578 22.1997 17.7308 22.1997 18.0037L22.1212 18.8224C22.0674 19.0953 21.9888 19.3558 21.8813 19.6122L21.4926 20.34C21.3396 20.5674 21.166 20.7783 20.9675 20.9768L20.3307 21.5019C20.1033 21.6549 19.8593 21.7872 19.6029 21.8906L18.8131 22.1304C18.5402 22.1842 18.2673 22.209 17.9944 22.209L17.1756 22.1304C16.9027 22.0767 16.6422 21.9981 16.3859 21.8906L15.6581 21.5019C15.4307 21.3489 15.2198 21.1752 15.0213 20.9768L14.4961 20.34C14.3432 20.1125 14.2108 19.8686 14.1075 19.6122L13.8676 18.8224C13.8139 18.5495 13.7891 18.2766 13.7891 18.0037L13.8676 17.1849C13.9214 16.912 13.9999 16.6515 14.1075 16.3951L14.4961 15.6674C14.6491 15.4399 14.8228 15.2291 15.0213 15.0306L15.6581 14.5054C15.8855 14.3524 16.1295 14.2201 16.3859 14.1167L17.1756 13.8769C17.4444 13.8273 17.7173 13.7983 17.9944 13.7983Z" fill="#D83750"/>
</g>
</g>
</g>
<mask id="mask4_141_693" style="mask-type:luminance" maskUnits="userSpaceOnUse" x="-1" y="-1" width="38" height="38">
<path d="M36.0896 -0.103027H-0.125V36.1116H36.0896V-0.103027Z" fill="white"/>
</mask>
<g mask="url(#mask4_141_693)">
<mask id="mask5_141_693" style="mask-type:luminance" maskUnits="userSpaceOnUse" x="-1" y="-1" width="38" height="38">
<path d="M36.0896 -0.103027H-0.125V36.1116H36.0896V-0.103027Z" fill="white"/>
</mask>
<g mask="url(#mask5_141_693)">
<mask id="mask6_141_693" style="mask-type:luminance" maskUnits="userSpaceOnUse" x="-1" y="-1" width="38" height="38">
<path d="M36.2171 -0.231934H-0.253906V36.2391H36.2171V-0.231934Z" fill="white"/>
</mask>
<g mask="url(#mask6_141_693)">
<path d="M17.9944 13.7983L18.8131 13.8769C19.086 13.9307 19.3465 14.0092 19.6029 14.1167L20.3307 14.5054C20.5581 14.6584 20.769 14.8321 20.9675 15.0306L21.4926 15.6674C21.6456 15.8948 21.7779 16.1388 21.8813 16.3951L22.1212 17.1849C22.1749 17.4578 22.1997 17.7308 22.1997 18.0037L22.1212 18.8224C22.0674 19.0953 21.9888 19.3558 21.8813 19.6122L21.4926 20.34C21.3396 20.5674 21.166 20.7783 20.9675 20.9768L20.3307 21.5019C20.1033 21.6549 19.8593 21.7872 19.6029 21.8906L18.8131 22.1304C18.5402 22.1842 18.2673 22.209 17.9944 22.209L17.1756 22.1304C16.9027 22.0767 16.6422 21.9981 16.3859 21.8906L15.6581 21.5019C15.4307 21.3489 15.2198 21.1752 15.0213 20.9768L14.4961 20.34C14.3432 20.1125 14.2108 19.8686 14.1075 19.6122L13.8676 18.8224C13.8139 18.5495 13.7891 18.2766 13.7891 18.0037L13.8676 17.1849C13.9214 16.912 13.9999 16.6515 14.1075 16.3951L14.4961 15.6674C14.6491 15.4399 14.8228 15.2291 15.0213 15.0306L15.6581 14.5054C15.8855 14.3524 16.1295 14.2201 16.3859 14.1167L17.1756 13.8769C17.4444 13.8273 17.7173 13.7983 17.9944 13.7983Z" fill="#D83750"/>
</g>
</g>
</g>
</g>
<mask id="mask7_141_693" style="mask-type:luminance" maskUnits="userSpaceOnUse" x="0" y="0" width="36" height="36">
<path d="M35.9913 0H0V35.9913H35.9913V0Z" fill="white"/>
</mask>
<g mask="url(#mask7_141_693)">
<mask id="mask8_141_693" style="mask-type:luminance" maskUnits="userSpaceOnUse" x="-1" y="-1" width="38" height="38">
<path d="M36.0896 -0.103027H-0.125V36.1116H36.0896V-0.103027Z" fill="white"/>
</mask>
<g mask="url(#mask8_141_693)">
<mask id="mask9_141_693" style="mask-type:luminance" maskUnits="userSpaceOnUse" x="-1" y="-1" width="38" height="38">
<path d="M36.0896 -0.103027H-0.125V36.1116H36.0896V-0.103027Z" fill="white"/>
</mask>
<g mask="url(#mask9_141_693)">
<mask id="mask10_141_693" style="mask-type:luminance" maskUnits="userSpaceOnUse" x="-1" y="-1" width="38" height="38">
<path d="M36.2171 -0.231934H-0.253906V36.2391H36.2171V-0.231934Z" fill="white"/>
</mask>
<g mask="url(#mask10_141_693)">
<path d="M17.9949 3.39893L19.4256 3.46922C19.9011 3.51884 20.3725 3.58501 20.8398 3.68011L22.2292 4.02745C22.684 4.16804 23.1389 4.32931 23.5772 4.51125L24.8714 5.12323C25.2932 5.34653 25.7026 5.59463 26.0995 5.85927L27.2532 6.71109C27.6212 7.01708 27.9769 7.33548 28.3118 7.67455L29.2753 8.73312C29.5812 9.10114 29.8624 9.4857 30.1271 9.8868L30.8631 11.1149C31.0864 11.5367 31.289 11.9667 31.4751 12.4092L31.9589 13.7572C32.0995 14.212 32.2153 14.6752 32.3062 15.1466L32.5171 16.5607C32.5667 17.0363 32.5874 17.5118 32.5874 17.9915L32.5171 19.4222C32.4675 19.8977 32.4013 20.3691 32.3062 20.8364L31.9589 22.2257C31.8183 22.6806 31.657 23.1354 31.4751 23.5738L30.8631 24.868C30.6398 25.2898 30.3917 25.6992 30.1271 26.0961L29.2753 27.2498C28.9734 27.6178 28.6509 27.9734 28.3118 28.3084L27.2532 29.2718C26.8852 29.5778 26.5006 29.859 26.0995 30.1237L24.8714 30.8597C24.4497 31.083 24.0196 31.2856 23.5772 31.4717L22.2333 31.9596C21.7784 32.1002 21.3153 32.216 20.8439 32.307L19.4297 32.5178C18.9542 32.5675 18.4787 32.5881 17.999 32.5881L16.5683 32.5178C16.0928 32.4682 15.6214 32.4021 15.1541 32.307L13.7647 31.9596C13.3099 31.819 12.855 31.6578 12.4167 31.4758L11.1225 30.8638C10.7007 30.6405 10.2913 30.3924 9.89435 30.1278L8.74067 29.276C8.37266 28.97 8.01704 28.6516 7.68211 28.3125L6.71864 27.2539C6.41679 26.8859 6.13147 26.5014 5.86683 26.1003L5.13079 24.8722C4.9075 24.4504 4.70488 24.0203 4.5188 23.5779L4.02674 22.2299C3.88615 21.775 3.77036 21.3119 3.67939 20.8405L3.46851 19.4263C3.42302 18.9467 3.40234 18.4711 3.40234 17.9915L3.47264 16.5607C3.52226 16.0852 3.58842 15.6138 3.68353 15.1466L4.03087 13.7572C4.17146 13.3023 4.33273 12.8475 4.51467 12.4092L5.12665 11.1149C5.34994 10.6931 5.59805 10.2838 5.86269 9.8868L6.71451 8.73312C7.01637 8.36511 7.33889 8.00949 7.67797 7.67455L8.73654 6.71109C9.10456 6.4051 9.48911 6.12391 9.89021 5.85927L11.1183 5.12323C11.5401 4.89994 11.9701 4.69733 12.4126 4.51125L13.7606 4.02745C14.2155 3.88686 14.6786 3.77108 15.15 3.68011L16.5642 3.46922C17.0397 3.42374 17.5152 3.39893 17.9949 3.39893Z" stroke="white" stroke-width="2.17089" stroke-linecap="round" stroke-linejoin="round"/>
</g>
</g>
</g>
<mask id="mask11_141_693" style="mask-type:luminance" maskUnits="userSpaceOnUse" x="-1" y="-1" width="38" height="38">
<path d="M36.0896 -0.103027H-0.125V36.1116H36.0896V-0.103027Z" fill="white"/>
</mask>
<g mask="url(#mask11_141_693)">
<mask id="mask12_141_693" style="mask-type:luminance" maskUnits="userSpaceOnUse" x="-1" y="-1" width="38" height="38">
<path d="M36.0896 -0.103027H-0.125V36.1116H36.0896V-0.103027Z" fill="white"/>
</mask>
<g mask="url(#mask12_141_693)">
<mask id="mask13_141_693" style="mask-type:luminance" maskUnits="userSpaceOnUse" x="-1" y="-1" width="38" height="38">
<path d="M36.2171 -0.231934H-0.253906V36.2391H36.2171V-0.231934Z" fill="white"/>
</mask>
<g mask="url(#mask13_141_693)">
<path d="M17.9949 3.39893L19.4256 3.46922C19.9011 3.51884 20.3725 3.58501 20.8398 3.68011L22.2292 4.02745C22.684 4.16804 23.1389 4.32931 23.5772 4.51125L24.8714 5.12323C25.2932 5.34653 25.7026 5.59463 26.0995 5.85927L27.2532 6.71109C27.6212 7.01708 27.9769 7.33548 28.3118 7.67455L29.2753 8.73312C29.5812 9.10114 29.8624 9.4857 30.1271 9.8868L30.8631 11.1149C31.0864 11.5367 31.289 11.9667 31.4751 12.4092L31.9589 13.7572C32.0995 14.212 32.2153 14.6752 32.3062 15.1466L32.5171 16.5607C32.5667 17.0363 32.5874 17.5118 32.5874 17.9915L32.5171 19.4222C32.4675 19.8977 32.4013 20.3691 32.3062 20.8364L31.9589 22.2257C31.8183 22.6806 31.657 23.1354 31.4751 23.5738L30.8631 24.868C30.6398 25.2898 30.3917 25.6992 30.1271 26.0961L29.2753 27.2498C28.9734 27.6178 28.6509 27.9734 28.3118 28.3084L27.2532 29.2718C26.8852 29.5778 26.5006 29.859 26.0995 30.1237L24.8714 30.8597C24.4497 31.083 24.0196 31.2856 23.5772 31.4717L22.2333 31.9596C21.7784 32.1002 21.3153 32.216 20.8439 32.307L19.4297 32.5178C18.9542 32.5675 18.4787 32.5881 17.999 32.5881L16.5683 32.5178C16.0928 32.4682 15.6214 32.4021 15.1541 32.307L13.7647 31.9596C13.3099 31.819 12.855 31.6578 12.4167 31.4758L11.1225 30.8638C10.7007 30.6405 10.2913 30.3924 9.89435 30.1278L8.74067 29.276C8.37266 28.97 8.01704 28.6516 7.68211 28.3125L6.71864 27.2539C6.41679 26.8859 6.13147 26.5014 5.86683 26.1003L5.13079 24.8722C4.9075 24.4504 4.70488 24.0203 4.5188 23.5779L4.02674 22.2299C3.88615 21.775 3.77036 21.3119 3.67939 20.8405L3.46851 19.4263C3.42302 18.9467 3.40234 18.4711 3.40234 17.9915L3.47264 16.5607C3.52226 16.0852 3.58842 15.6138 3.68353 15.1466L4.03087 13.7572C4.17146 13.3023 4.33273 12.8475 4.51467 12.4092L5.12665 11.1149C5.34994 10.6931 5.59805 10.2838 5.86269 9.8868L6.71451 8.73312C7.01637 8.36511 7.33889 8.00949 7.67797 7.67455L8.73654 6.71109C9.10456 6.4051 9.48911 6.12391 9.89021 5.85927L11.1183 5.12323C11.5401 4.89994 11.9701 4.69733 12.4126 4.51125L13.7606 4.02745C14.2155 3.88686 14.6786 3.77108 15.15 3.68011L16.5642 3.46922C17.0397 3.42374 17.5152 3.39893 17.9949 3.39893Z" stroke="white" stroke-width="2.17089" stroke-linecap="round" stroke-linejoin="round"/>
</g>
</g>
</g>
</g>
<mask id="mask14_141_693" style="mask-type:luminance" maskUnits="userSpaceOnUse" x="0" y="0" width="36" height="36">
<path d="M35.9913 0H0V35.9913H35.9913V0Z" fill="white"/>
</mask>
<g mask="url(#mask14_141_693)">
<mask id="mask15_141_693" style="mask-type:luminance" maskUnits="userSpaceOnUse" x="-1" y="-1" width="38" height="38">
<path d="M36.0896 -0.103027H-0.125V36.1116H36.0896V-0.103027Z" fill="white"/>
</mask>
<g mask="url(#mask15_141_693)">
<mask id="mask16_141_693" style="mask-type:luminance" maskUnits="userSpaceOnUse" x="-1" y="-1" width="38" height="38">
<path d="M36.0896 -0.103027H-0.125V36.1116H36.0896V-0.103027Z" fill="white"/>
</mask>
<g mask="url(#mask16_141_693)">
<mask id="mask17_141_693" style="mask-type:luminance" maskUnits="userSpaceOnUse" x="-1" y="-1" width="38" height="38">
<path d="M36.2171 -0.231934H-0.253906V36.2391H36.2171V-0.231934Z" fill="white"/>
</mask>
<g mask="url(#mask17_141_693)">
<path d="M32.591 18.5952H26.9922" stroke="white" stroke-width="2.17089" stroke-linecap="round" stroke-linejoin="round"/>
</g>
</g>
</g>
<mask id="mask18_141_693" style="mask-type:luminance" maskUnits="userSpaceOnUse" x="-1" y="-1" width="38" height="38">
<path d="M36.0896 -0.103027H-0.125V36.1116H36.0896V-0.103027Z" fill="white"/>
</mask>
<g mask="url(#mask18_141_693)">
<mask id="mask19_141_693" style="mask-type:luminance" maskUnits="userSpaceOnUse" x="-1" y="-1" width="38" height="38">
<path d="M36.0896 -0.103027H-0.125V36.1116H36.0896V-0.103027Z" fill="white"/>
</mask>
<g mask="url(#mask19_141_693)">
<mask id="mask20_141_693" style="mask-type:luminance" maskUnits="userSpaceOnUse" x="-1" y="-1" width="38" height="38">
<path d="M36.2171 -0.231934H-0.253906V36.2391H36.2171V-0.231934Z" fill="white"/>
</mask>
<g mask="url(#mask20_141_693)">
<path d="M32.591 18.5952H26.9922" stroke="white" stroke-width="2.17089" stroke-linecap="round" stroke-linejoin="round"/>
</g>
</g>
</g>
</g>
<mask id="mask21_141_693" style="mask-type:luminance" maskUnits="userSpaceOnUse" x="0" y="0" width="36" height="36">
<path d="M35.9913 0H0V35.9913H35.9913V0Z" fill="white"/>
</mask>
<g mask="url(#mask21_141_693)">
<mask id="mask22_141_693" style="mask-type:luminance" maskUnits="userSpaceOnUse" x="-1" y="-1" width="38" height="38">
<path d="M36.0896 -0.103027H-0.125V36.1116H36.0896V-0.103027Z" fill="white"/>
</mask>
<g mask="url(#mask22_141_693)">
<mask id="mask23_141_693" style="mask-type:luminance" maskUnits="userSpaceOnUse" x="-1" y="-1" width="38" height="38">
<path d="M36.0896 -0.103027H-0.125V36.1116H36.0896V-0.103027Z" fill="white"/>
</mask>
<g mask="url(#mask23_141_693)">
<mask id="mask24_141_693" style="mask-type:luminance" maskUnits="userSpaceOnUse" x="-1" y="-1" width="38" height="38">
<path d="M36.2171 -0.231934H-0.253906V36.2391H36.2171V-0.231934Z" fill="white"/>
</mask>
<g mask="url(#mask24_141_693)">
<path d="M9.39837 18.5942H3.39844" stroke="white" stroke-width="2.17089" stroke-linecap="round" stroke-linejoin="round"/>
</g>
</g>
</g>
<mask id="mask25_141_693" style="mask-type:luminance" maskUnits="userSpaceOnUse" x="-1" y="-1" width="38" height="38">
<path d="M36.0896 -0.103027H-0.125V36.1116H36.0896V-0.103027Z" fill="white"/>
</mask>
<g mask="url(#mask25_141_693)">
<mask id="mask26_141_693" style="mask-type:luminance" maskUnits="userSpaceOnUse" x="-1" y="-1" width="38" height="38">
<path d="M36.0896 -0.103027H-0.125V36.1116H36.0896V-0.103027Z" fill="white"/>
</mask>
<g mask="url(#mask26_141_693)">
<mask id="mask27_141_693" style="mask-type:luminance" maskUnits="userSpaceOnUse" x="-1" y="-1" width="38" height="38">
<path d="M36.2171 -0.231934H-0.253906V36.2391H36.2171V-0.231934Z" fill="white"/>
</mask>
<g mask="url(#mask27_141_693)">
<path d="M9.39837 18.5942H3.39844" stroke="white" stroke-width="2.17089" stroke-linecap="round" stroke-linejoin="round"/>
</g>
</g>
</g>
</g>
<mask id="mask28_141_693" style="mask-type:luminance" maskUnits="userSpaceOnUse" x="0" y="0" width="36" height="36">
<path d="M35.9913 0H0V35.9913H35.9913V0Z" fill="white"/>
</mask>
<g mask="url(#mask28_141_693)">
<mask id="mask29_141_693" style="mask-type:luminance" maskUnits="userSpaceOnUse" x="-1" y="-1" width="38" height="38">
<path d="M36.0896 -0.103027H-0.125V36.1116H36.0896V-0.103027Z" fill="white"/>
</mask>
<g mask="url(#mask29_141_693)">
<mask id="mask30_141_693" style="mask-type:luminance" maskUnits="userSpaceOnUse" x="-1" y="-1" width="38" height="38">
<path d="M36.0896 -0.103027H-0.125V36.1116H36.0896V-0.103027Z" fill="white"/>
</mask>
<g mask="url(#mask30_141_693)">
<mask id="mask31_141_693" style="mask-type:luminance" maskUnits="userSpaceOnUse" x="-1" y="-1" width="38" height="38">
<path d="M36.2171 -0.231934H-0.253906V36.2391H36.2171V-0.231934Z" fill="white"/>
</mask>
<g mask="url(#mask31_141_693)">
<path d="M18.5938 9.39886V3.39893" stroke="white" stroke-width="2.17089" stroke-linecap="round" stroke-linejoin="round"/>
</g>
</g>
</g>
<mask id="mask32_141_693" style="mask-type:luminance" maskUnits="userSpaceOnUse" x="-1" y="-1" width="38" height="38">
<path d="M36.0896 -0.103027H-0.125V36.1116H36.0896V-0.103027Z" fill="white"/>
</mask>
<g mask="url(#mask32_141_693)">
<mask id="mask33_141_693" style="mask-type:luminance" maskUnits="userSpaceOnUse" x="-1" y="-1" width="38" height="38">
<path d="M36.0896 -0.103027H-0.125V36.1116H36.0896V-0.103027Z" fill="white"/>
</mask>
<g mask="url(#mask33_141_693)">
<mask id="mask34_141_693" style="mask-type:luminance" maskUnits="userSpaceOnUse" x="-1" y="-1" width="38" height="38">
<path d="M36.2171 -0.231934H-0.253906V36.2391H36.2171V-0.231934Z" fill="white"/>
</mask>
<g mask="url(#mask34_141_693)">
<path d="M18.5938 9.39886V3.39893" stroke="white" stroke-width="2.17089" stroke-linecap="round" stroke-linejoin="round"/>
</g>
</g>
</g>
</g>
<mask id="mask35_141_693" style="mask-type:luminance" maskUnits="userSpaceOnUse" x="0" y="0" width="36" height="36">
<path d="M35.9913 0H0V35.9913H35.9913V0Z" fill="white"/>
</mask>
<g mask="url(#mask35_141_693)">
<mask id="mask36_141_693" style="mask-type:luminance" maskUnits="userSpaceOnUse" x="-1" y="-1" width="38" height="38">
<path d="M36.0896 -0.103027H-0.125V36.1116H36.0896V-0.103027Z" fill="white"/>
</mask>
<g mask="url(#mask36_141_693)">
<mask id="mask37_141_693" style="mask-type:luminance" maskUnits="userSpaceOnUse" x="-1" y="-1" width="38" height="38">
<path d="M36.0896 -0.103027H-0.125V36.1116H36.0896V-0.103027Z" fill="white"/>
</mask>
<g mask="url(#mask37_141_693)">
<mask id="mask38_141_693" style="mask-type:luminance" maskUnits="userSpaceOnUse" x="-1" y="-1" width="38" height="38">
<path d="M36.2171 -0.231934H-0.253906V36.2391H36.2171V-0.231934Z" fill="white"/>
</mask>
<g mask="url(#mask38_141_693)">
<path d="M18.5938 32.5915V26.9927" stroke="white" stroke-width="2.17089" stroke-linecap="round" stroke-linejoin="round"/>
</g>
</g>
</g>
<mask id="mask39_141_693" style="mask-type:luminance" maskUnits="userSpaceOnUse" x="-1" y="-1" width="38" height="38">
<path d="M36.0896 -0.103027H-0.125V36.1116H36.0896V-0.103027Z" fill="white"/>
</mask>
<g mask="url(#mask39_141_693)">
<mask id="mask40_141_693" style="mask-type:luminance" maskUnits="userSpaceOnUse" x="-1" y="-1" width="38" height="38">
<path d="M36.0896 -0.103027H-0.125V36.1116H36.0896V-0.103027Z" fill="white"/>
</mask>
<g mask="url(#mask40_141_693)">
<mask id="mask41_141_693" style="mask-type:luminance" maskUnits="userSpaceOnUse" x="-1" y="-1" width="38" height="38">
<path d="M36.2171 -0.231934H-0.253906V36.2391H36.2171V-0.231934Z" fill="white"/>
</mask>
<g mask="url(#mask41_141_693)">
<path d="M18.5938 32.5915V26.9927" stroke="white" stroke-width="2.17089" stroke-linecap="round" stroke-linejoin="round"/>
</g>
</g>
</g>
</g>
<path d="M61.4771 20.7941C61.4771 21.8674 61.1868 22.7648 60.6062 23.4862C60.0431 24.19 59.2777 24.7179 58.3099 25.0698C57.3422 25.4217 56.2776 25.5977 55.1163 25.5977H45.9842V6.85832H56.4096C57.2894 6.85832 58.046 7.09587 58.6794 7.57095C59.3305 8.02843 59.8232 8.62669 60.1575 9.3657C60.5094 10.1047 60.6853 10.8701 60.6853 11.6619C60.6853 12.5417 60.4566 13.3863 59.9991 14.1957C59.5416 14.9875 58.873 15.5858 57.9932 15.9904C59.0665 16.3072 59.9111 16.8702 60.527 17.6796C61.1604 18.489 61.4771 19.5272 61.4771 20.7941ZM57.0694 19.9231C57.0694 19.5184 56.9903 19.1665 56.8319 18.8673C56.6735 18.5506 56.4624 18.3043 56.1985 18.1283C55.9521 17.9348 55.653 17.838 55.3011 17.838H50.3127V21.929H55.1163C55.4858 21.929 55.8114 21.841 56.0929 21.665C56.392 21.4891 56.6296 21.2515 56.8055 20.9524C56.9815 20.6533 57.0694 20.3102 57.0694 19.9231ZM50.3127 10.5534V14.4332H54.5621C54.8788 14.4332 55.1691 14.3629 55.4331 14.2221C55.7146 14.0813 55.9433 13.8702 56.1193 13.5886C56.2952 13.2895 56.3832 12.92 56.3832 12.4801C56.3832 12.0578 56.304 11.7059 56.1457 11.4244C56.0049 11.1429 55.8114 10.9317 55.565 10.7909C55.3187 10.6326 55.0372 10.5534 54.7204 10.5534H50.3127ZM72.2349 25.756C70.8273 25.756 69.5516 25.4921 68.4079 24.9642C67.2818 24.4187 66.3052 23.6973 65.4782 22.8C64.6688 21.885 64.0442 20.8644 63.6043 19.7383C63.1644 18.5946 62.9445 17.4157 62.9445 16.2016C62.9445 14.9523 63.1732 13.7646 63.6307 12.6385C64.1058 11.5124 64.7568 10.5094 65.5838 9.62963C66.4284 8.73226 67.4225 8.02843 68.5663 7.51816C69.71 7.00789 70.9593 6.75275 72.3141 6.75275C73.7042 6.75275 74.9623 7.02548 76.0884 7.57095C77.2321 8.09882 78.2087 8.82024 79.0181 9.73521C79.845 10.6502 80.4785 11.6795 80.9184 12.8232C81.3583 13.9494 81.5782 15.1019 81.5782 16.2808C81.5782 17.5301 81.3495 18.7178 80.892 19.8439C80.4345 20.97 79.7835 21.9818 78.9389 22.8791C78.0943 23.7589 77.1001 24.4627 75.9564 24.9906C74.8303 25.5009 73.5898 25.756 72.2349 25.756ZM67.3522 16.2544C67.3522 16.9758 67.4577 17.6796 67.6689 18.3659C67.88 19.0345 68.1879 19.6327 68.5926 20.1606C69.0149 20.6885 69.534 21.1108 70.1499 21.4275C70.7657 21.7442 71.4695 21.9026 72.2613 21.9026C73.0883 21.9026 73.8097 21.7442 74.4256 21.4275C75.0414 21.0932 75.5517 20.6533 75.9564 20.1078C76.3611 19.5624 76.6602 18.9553 76.8538 18.2867C77.0649 17.6004 77.1705 16.9054 77.1705 16.2016C77.1705 15.4802 77.0649 14.7852 76.8538 14.1165C76.6426 13.4479 76.3259 12.8496 75.9036 12.3218C75.4813 11.7763 74.9623 11.354 74.3464 11.0549C73.7306 10.7558 73.0355 10.6062 72.2613 10.6062C71.4343 10.6062 70.7129 10.7646 70.0971 11.0813C69.4988 11.398 68.9885 11.8291 68.5663 12.3746C68.1616 12.9024 67.8536 13.5095 67.6425 14.1957C67.4489 14.8643 67.3522 15.5506 67.3522 16.2544ZM95.2199 12.3482C95.1671 12.2602 94.9824 12.1282 94.6656 11.9523C94.3489 11.7587 93.953 11.5564 93.4779 11.3452C93.0029 11.1341 92.4838 10.9493 91.9207 10.7909C91.3577 10.6326 90.7946 10.5534 90.2315 10.5534C89.4925 10.5534 88.9207 10.6854 88.516 10.9493C88.1113 11.1956 87.9089 11.5827 87.9089 12.1106C87.9089 12.5329 88.0585 12.8672 88.3576 13.1136C88.6743 13.3599 89.123 13.5799 89.7037 13.7734C90.2843 13.9494 90.997 14.1605 91.8415 14.4068C93.038 14.7236 94.0762 15.1107 94.956 15.5682C95.8357 16.008 96.5044 16.5799 96.9619 17.2837C97.4369 17.9876 97.6745 18.9201 97.6745 20.0814C97.6745 21.1372 97.4809 22.0345 97.0938 22.7736C96.7067 23.495 96.1789 24.0844 95.5102 24.5419C94.8592 24.9818 94.1114 25.3073 93.2668 25.5185C92.4222 25.712 91.5512 25.8088 90.6538 25.8088C89.7389 25.8088 88.7975 25.7208 87.8297 25.5449C86.8796 25.3513 85.9646 25.0874 85.0848 24.7531C84.205 24.4012 83.3956 23.9789 82.6566 23.4862L84.557 19.7119C84.6273 19.7999 84.8561 19.9671 85.2432 20.2134C85.6303 20.4421 86.1054 20.6885 86.6684 20.9524C87.2491 21.1988 87.8913 21.4187 88.5952 21.6122C89.299 21.8058 90.0116 21.9026 90.733 21.9026C91.5072 21.9026 92.0791 21.7794 92.4486 21.5331C92.8357 21.2867 93.0292 20.9436 93.0292 20.5037C93.0292 20.0286 92.8269 19.6591 92.4222 19.3952C92.0351 19.1313 91.4984 18.8937 90.8122 18.6826C90.1436 18.4714 89.3694 18.2339 88.4896 17.97C87.3459 17.618 86.3957 17.2221 85.6391 16.7823C84.9001 16.3424 84.3458 15.8057 83.9763 15.1723C83.6244 14.5388 83.4484 13.747 83.4484 12.7968C83.4484 11.4772 83.7564 10.3687 84.3722 9.47127C85.0056 8.5563 85.8502 7.87007 86.906 7.41259C87.9617 6.93751 89.1142 6.69996 90.3635 6.69996C91.2433 6.69996 92.0879 6.80554 92.8973 7.01668C93.7243 7.22783 94.4897 7.49177 95.1935 7.80849C95.9149 8.12521 96.5572 8.44193 97.1202 8.75865L95.2199 12.3482ZM114.493 10.659H108.792V25.5977H104.464V10.659H98.7364V6.85832H114.493V10.659ZM124.455 25.756C123.047 25.756 121.771 25.4921 120.628 24.9642C119.502 24.4187 118.525 23.6973 117.698 22.8C116.889 21.885 116.264 20.8644 115.824 19.7383C115.384 18.5946 115.164 17.4157 115.164 16.2016C115.164 14.9523 115.393 13.7646 115.85 12.6385C116.326 11.5124 116.977 10.5094 117.804 9.62963C118.648 8.73226 119.642 8.02843 120.786 7.51816C121.93 7.00789 123.179 6.75275 124.534 6.75275C125.924 6.75275 127.182 7.02548 128.308 7.57095C129.452 8.09882 130.428 8.82024 131.238 9.73521C132.065 10.6502 132.698 11.6795 133.138 12.8232C133.578 13.9494 133.798 15.1019 133.798 16.2808C133.798 17.5301 133.569 18.7178 133.112 19.8439C132.654 20.97 132.003 21.9818 131.159 22.8791C130.314 23.7589 129.32 24.4627 128.176 24.9906C127.05 25.5009 125.81 25.756 124.455 25.756ZM119.572 16.2544C119.572 16.9758 119.678 17.6796 119.889 18.3659C120.1 19.0345 120.408 19.6327 120.812 20.1606C121.235 20.6885 121.754 21.1108 122.37 21.4275C122.986 21.7442 123.689 21.9026 124.481 21.9026C125.308 21.9026 126.03 21.7442 126.645 21.4275C127.261 21.0932 127.772 20.6533 128.176 20.1078C128.581 19.5624 128.88 18.9553 129.074 18.2867C129.285 17.6004 129.39 16.9054 129.39 16.2016C129.39 15.4802 129.285 14.7852 129.074 14.1165C128.862 13.4479 128.546 12.8496 128.123 12.3218C127.701 11.7763 127.182 11.354 126.566 11.0549C125.95 10.7558 125.255 10.6062 124.481 10.6062C123.654 10.6062 122.933 10.7646 122.317 11.0813C121.719 11.398 121.208 11.8291 120.786 12.3746C120.381 12.9024 120.073 13.5095 119.862 14.1957C119.669 14.8643 119.572 15.5506 119.572 16.2544ZM140.628 14.8819V25.5977H136.299V6.85832H139.73L148.414 17.8908V6.85832H152.742V25.5977H149.206L140.628 14.8819ZM163.041 25.5977V6.85832H175.34V8.49472H164.888V15.3834H173.704V16.9142H164.888V25.5977H163.041ZM178.583 25.5977V6.85832H180.43V25.5977H178.583ZM185.13 25.5977V6.85832H193.048C193.857 6.85832 194.596 7.02548 195.265 7.3598C195.933 7.69412 196.514 8.1516 197.007 8.73226C197.517 9.29532 197.904 9.92876 198.168 10.6326C198.45 11.3188 198.59 12.0226 198.59 12.7441C198.59 13.6414 198.414 14.486 198.062 15.2778C197.728 16.0696 197.244 16.7383 196.611 17.2837C195.995 17.8292 195.265 18.1899 194.42 18.3659L199.013 25.5977H196.928L192.52 18.6826H186.977V25.5977H185.13ZM186.977 17.0462H193.101C193.84 17.0462 194.482 16.8438 195.027 16.4391C195.573 16.0344 195.995 15.5066 196.294 14.8555C196.593 14.1869 196.743 13.4831 196.743 12.7441C196.743 11.9874 196.567 11.2924 196.215 10.659C195.881 10.0079 195.423 9.48887 194.842 9.10177C194.279 8.69707 193.646 8.49472 192.942 8.49472H186.977V17.0462ZM214.963 23.9613V25.5977H202.373V6.85832H214.725V8.49472H204.221V15.2514H213.379V16.8086H204.221V23.9613H214.963ZM224.263 6.85832H225.82L233.606 25.5977H231.653L229.225 19.7383H220.806L218.404 25.5977H216.424L224.263 6.85832ZM228.803 18.2867L225.029 9.02259L221.201 18.2867H228.803ZM236.293 25.5977V6.85832H244.211C245.02 6.85832 245.759 7.02548 246.428 7.3598C247.096 7.69412 247.677 8.1516 248.17 8.73226C248.68 9.29532 249.067 9.92876 249.331 10.6326C249.613 11.3188 249.753 12.0226 249.753 12.7441C249.753 13.6414 249.577 14.486 249.226 15.2778C248.891 16.0696 248.407 16.7383 247.774 17.2837C247.158 17.8292 246.428 18.1899 245.583 18.3659L250.176 25.5977H248.091L243.683 18.6826H238.14V25.5977H236.293ZM238.14 17.0462H244.264C245.003 17.0462 245.645 16.8438 246.19 16.4391C246.736 16.0344 247.158 15.5066 247.457 14.8555C247.756 14.1869 247.906 13.4831 247.906 12.7441C247.906 11.9874 247.73 11.2924 247.378 10.659C247.044 10.0079 246.586 9.48887 246.006 9.10177C245.442 8.69707 244.809 8.49472 244.105 8.49472H238.14V17.0462ZM270.138 25.5977V10.3423L263.354 22.1929H262.193L255.384 10.3423V25.5977H253.536V6.85832H255.436L262.747 19.6855L270.111 6.85832H271.985V25.5977H270.138ZM287.635 10.3687C287.371 10.0695 287.063 9.80559 286.711 9.57685C286.359 9.33051 285.964 9.11936 285.524 8.94341C285.084 8.76745 284.609 8.62668 284.098 8.52111C283.606 8.41554 283.078 8.36275 282.515 8.36275C280.878 8.36275 279.673 8.67947 278.899 9.31291C278.142 9.92876 277.764 10.7733 277.764 11.8467C277.764 12.5857 277.94 13.1664 278.292 13.5886C278.661 14.0109 279.233 14.3541 280.007 14.618C280.782 14.8819 281.767 15.1547 282.964 15.4362C284.301 15.7177 285.453 16.052 286.421 16.4391C287.389 16.8262 288.137 17.3541 288.665 18.0227C289.192 18.6738 289.456 19.5624 289.456 20.6885C289.456 21.5507 289.289 22.2985 288.955 22.9319C288.621 23.5654 288.154 24.0932 287.556 24.5155C286.958 24.9378 286.245 25.2545 285.418 25.4657C284.591 25.6592 283.685 25.756 282.7 25.756C281.732 25.756 280.799 25.6592 279.902 25.4657C279.022 25.2545 278.186 24.9554 277.395 24.5683C276.603 24.1636 275.864 23.6533 275.177 23.0375L276.101 21.5331C276.436 21.885 276.831 22.2193 277.289 22.536C277.764 22.8351 278.283 23.1079 278.846 23.3542C279.427 23.6006 280.043 23.7941 280.694 23.9349C281.362 24.058 282.049 24.1196 282.752 24.1196C284.248 24.1196 285.409 23.8469 286.236 23.3014C287.081 22.756 287.503 21.9466 287.503 20.8732C287.503 20.099 287.292 19.4832 286.87 19.0257C286.447 18.5506 285.814 18.1635 284.969 17.8644C284.125 17.5653 283.087 17.2749 281.855 16.9934C280.553 16.6943 279.453 16.36 278.556 15.9904C277.658 15.6209 276.981 15.1371 276.524 14.5388C276.084 13.923 275.864 13.1136 275.864 12.1106C275.864 10.9493 276.145 9.97275 276.708 9.18095C277.289 8.37155 278.081 7.7645 279.084 7.3598C280.087 6.93751 281.239 6.72636 282.541 6.72636C283.368 6.72636 284.134 6.81434 284.837 6.99029C285.559 7.14865 286.219 7.38619 286.817 7.70291C287.433 8.01964 288.005 8.41554 288.533 8.89062L287.635 10.3687Z" fill="white"/>
</svg>
