<svg width="56" height="56" viewBox="0 0 56 56" fill="none" xmlns="http://www.w3.org/2000/svg">
<mask id="mask0_184_942" style="mask-type:luminance" maskUnits="userSpaceOnUse" x="0" y="0" width="57" height="57">
<path d="M56.0089 0H0V56.0089H56.0089V0Z" fill="white"/>
</mask>
<g mask="url(#mask0_184_942)">
<mask id="mask1_184_942" style="mask-type:luminance" maskUnits="userSpaceOnUse" x="-1" y="-1" width="58" height="58">
<path d="M56.165 -0.159668H-0.191406V56.1967H56.165V-0.159668Z" fill="white"/>
</mask>
<g mask="url(#mask1_184_942)">
<mask id="mask2_184_942" style="mask-type:luminance" maskUnits="userSpaceOnUse" x="-1" y="-1" width="58" height="58">
<path d="M56.165 -0.160156H-0.191406V56.1962H56.165V-0.160156Z" fill="white"/>
</mask>
<g mask="url(#mask2_184_942)">
<mask id="mask3_184_942" style="mask-type:luminance" maskUnits="userSpaceOnUse" x="-1" y="-1" width="58" height="58">
<path d="M56.3647 -0.360352H-0.390625V56.395H56.3647V-0.360352Z" fill="white"/>
</mask>
<g mask="url(#mask3_184_942)">
<path d="M28.0071 21.4731L29.2812 21.5954C29.7059 21.6791 30.1113 21.8013 30.5103 21.9686L31.6428 22.5735C31.9967 22.8116 32.3249 23.0819 32.6338 23.3907L33.451 24.3817C33.6891 24.7356 33.895 25.1153 34.0559 25.5142L34.4291 26.7433C34.5128 27.168 34.5514 27.5927 34.5514 28.0174L34.4291 29.2915C34.3455 29.7162 34.2232 30.1216 34.0559 30.5205L33.451 31.6531C33.2129 32.007 32.9427 32.3352 32.6338 32.644L31.6428 33.4613C31.2889 33.6993 30.9092 33.9053 30.5103 34.0661L29.2812 34.4394C28.8565 34.523 28.4318 34.5616 28.0071 34.5616L26.733 34.4394C26.3083 34.3557 25.9029 34.2334 25.504 34.0661L24.3714 33.4613C24.0175 33.2232 23.6893 32.9529 23.3805 32.644L22.5632 31.6531C22.3252 31.2992 22.1192 30.9195 21.9584 30.5205L21.5851 29.2915C21.5015 28.8668 21.4629 28.4421 21.4629 28.0174L21.5851 26.7433C21.6688 26.3186 21.7911 25.9132 21.9584 25.5142L22.5632 24.3817C22.8013 24.0278 23.0716 23.6996 23.3805 23.3907L24.3714 22.5735C24.7254 22.3354 25.105 22.1295 25.504 21.9686L26.733 21.5954C27.1513 21.5182 27.576 21.4731 28.0071 21.4731Z" fill="#D83750"/>
</g>
</g>
</g>
<mask id="mask4_184_942" style="mask-type:luminance" maskUnits="userSpaceOnUse" x="-1" y="-1" width="58" height="58">
<path d="M56.165 -0.159668H-0.191406V56.1967H56.165V-0.159668Z" fill="white"/>
</mask>
<g mask="url(#mask4_184_942)">
<mask id="mask5_184_942" style="mask-type:luminance" maskUnits="userSpaceOnUse" x="-1" y="-1" width="58" height="58">
<path d="M56.165 -0.160156H-0.191406V56.1962H56.165V-0.160156Z" fill="white"/>
</mask>
<g mask="url(#mask5_184_942)">
<mask id="mask6_184_942" style="mask-type:luminance" maskUnits="userSpaceOnUse" x="-1" y="-1" width="58" height="58">
<path d="M56.3647 -0.360352H-0.390625V56.395H56.3647V-0.360352Z" fill="white"/>
</mask>
<g mask="url(#mask6_184_942)">
<path d="M28.0071 21.4731L29.2812 21.5954C29.7059 21.6791 30.1113 21.8013 30.5103 21.9686L31.6428 22.5735C31.9967 22.8116 32.3249 23.0819 32.6338 23.3907L33.451 24.3817C33.6891 24.7356 33.895 25.1153 34.0559 25.5142L34.4291 26.7433C34.5128 27.168 34.5514 27.5927 34.5514 28.0174L34.4291 29.2915C34.3455 29.7162 34.2232 30.1216 34.0559 30.5205L33.451 31.6531C33.2129 32.007 32.9427 32.3352 32.6338 32.644L31.6428 33.4613C31.2889 33.6993 30.9092 33.9053 30.5103 34.0661L29.2812 34.4394C28.8565 34.523 28.4318 34.5616 28.0071 34.5616L26.733 34.4394C26.3083 34.3557 25.9029 34.2334 25.504 34.0661L24.3714 33.4613C24.0175 33.2232 23.6893 32.9529 23.3805 32.644L22.5632 31.6531C22.3252 31.2992 22.1192 30.9195 21.9584 30.5205L21.5851 29.2915C21.5015 28.8668 21.4629 28.4421 21.4629 28.0174L21.5851 26.7433C21.6688 26.3186 21.7911 25.9132 21.9584 25.5142L22.5632 24.3817C22.8013 24.0278 23.0716 23.6996 23.3805 23.3907L24.3714 22.5735C24.7254 22.3354 25.105 22.1295 25.504 21.9686L26.733 21.5954C27.1513 21.5182 27.576 21.4731 28.0071 21.4731Z" fill="#D83750"/>
</g>
</g>
</g>
</g>
<mask id="mask7_184_942" style="mask-type:luminance" maskUnits="userSpaceOnUse" x="0" y="0" width="57" height="57">
<path d="M56.0089 0H0V56.0089H56.0089V0Z" fill="white"/>
</mask>
<g mask="url(#mask7_184_942)">
<mask id="mask8_184_942" style="mask-type:luminance" maskUnits="userSpaceOnUse" x="-1" y="-1" width="58" height="58">
<path d="M56.165 -0.159668H-0.191406V56.1967H56.165V-0.159668Z" fill="white"/>
</mask>
<g mask="url(#mask8_184_942)">
<mask id="mask9_184_942" style="mask-type:luminance" maskUnits="userSpaceOnUse" x="-1" y="-1" width="58" height="58">
<path d="M56.165 -0.160156H-0.191406V56.1962H56.165V-0.160156Z" fill="white"/>
</mask>
<g mask="url(#mask9_184_942)">
<mask id="mask10_184_942" style="mask-type:luminance" maskUnits="userSpaceOnUse" x="-1" y="-1" width="58" height="58">
<path d="M56.3647 -0.360352H-0.390625V56.395H56.3647V-0.360352Z" fill="white"/>
</mask>
<g mask="url(#mask10_184_942)">
<path d="M28.0055 5.28955L30.2319 5.39894C30.9719 5.47616 31.7055 5.57912 32.4326 5.72713L34.5947 6.26765C35.3026 6.48644 36.0104 6.73739 36.6925 7.02053L38.7066 7.97288C39.363 8.32036 40 8.70645 40.6178 9.11828L42.4131 10.4439C42.9858 10.92 43.5392 11.4155 44.0604 11.9432L45.5597 13.5905C46.0359 14.1632 46.4735 14.7616 46.8853 15.3858L48.0307 17.297C48.3782 17.9533 48.6935 18.6226 48.9831 19.3111L49.7359 21.4088C49.9547 22.1167 50.1349 22.8374 50.2765 23.571L50.6046 25.7717C50.6819 26.5117 50.714 27.2517 50.714 27.9981L50.6046 30.2246C50.5274 30.9646 50.4245 31.6982 50.2765 32.4253L49.7359 34.5874C49.5172 35.2953 49.2662 36.0031 48.9831 36.6852L48.0307 38.6993C47.6832 39.3556 47.2971 39.9927 46.8853 40.6104L45.5597 42.4058C45.09 42.9785 44.5881 43.5319 44.0604 44.0531L42.4131 45.5524C41.8404 46.0286 41.2419 46.4662 40.6178 46.878L38.7066 48.0234C38.0503 48.3709 37.381 48.6862 36.6925 48.9757L34.6012 49.7351C33.8933 49.9538 33.1726 50.134 32.4391 50.2756L30.2384 50.6038C29.4983 50.681 28.7583 50.7131 28.0119 50.7131L25.7854 50.6038C25.0454 50.5265 24.3119 50.4236 23.5847 50.2756L21.4226 49.7351C20.7148 49.5163 20.0069 49.2653 19.3248 48.9822L17.3107 48.0298C16.6544 47.6823 16.0173 47.2962 15.3996 46.8844L13.6043 45.5588C13.0316 45.0827 12.4782 44.5872 11.9569 44.0595L10.4576 42.4122C9.98788 41.8395 9.54388 41.2411 9.13205 40.6169L7.98665 38.7057C7.63917 38.0494 7.32385 37.3801 7.03428 36.6916L6.26854 34.5939C6.04976 33.886 5.86958 33.1653 5.72801 32.4317L5.39983 30.231C5.32905 29.4846 5.29688 28.7446 5.29688 27.9981L5.40627 25.7717C5.48348 25.0317 5.58645 24.2981 5.73445 23.571L6.27497 21.4088C6.49376 20.701 6.74472 19.9932 7.02785 19.3111L7.98021 17.297C8.32769 16.6406 8.71378 16.0036 9.12561 15.3858L10.4512 13.5905C10.9209 13.0178 11.4228 12.4644 11.9505 11.9432L13.5978 10.4439C14.1705 9.96769 14.769 9.53011 15.3932 9.11828L17.3043 7.97288C17.9607 7.6254 18.6299 7.31009 19.3184 7.02053L21.4162 6.26765C22.124 6.04887 22.8447 5.86869 23.5783 5.72713L25.779 5.39894C26.519 5.32816 27.259 5.28955 28.0055 5.28955Z" stroke="white" stroke-width="2.17089" stroke-linecap="round" stroke-linejoin="round"/>
</g>
</g>
</g>
<mask id="mask11_184_942" style="mask-type:luminance" maskUnits="userSpaceOnUse" x="-1" y="-1" width="58" height="58">
<path d="M56.165 -0.159668H-0.191406V56.1967H56.165V-0.159668Z" fill="white"/>
</mask>
<g mask="url(#mask11_184_942)">
<mask id="mask12_184_942" style="mask-type:luminance" maskUnits="userSpaceOnUse" x="-1" y="-1" width="58" height="58">
<path d="M56.165 -0.160156H-0.191406V56.1962H56.165V-0.160156Z" fill="white"/>
</mask>
<g mask="url(#mask12_184_942)">
<mask id="mask13_184_942" style="mask-type:luminance" maskUnits="userSpaceOnUse" x="-1" y="-1" width="58" height="58">
<path d="M56.3647 -0.360352H-0.390625V56.395H56.3647V-0.360352Z" fill="white"/>
</mask>
<g mask="url(#mask13_184_942)">
<path d="M28.0055 5.28955L30.2319 5.39894C30.9719 5.47616 31.7055 5.57912 32.4326 5.72713L34.5947 6.26765C35.3026 6.48644 36.0104 6.73739 36.6925 7.02053L38.7066 7.97288C39.363 8.32036 40 8.70645 40.6178 9.11828L42.4131 10.4439C42.9858 10.92 43.5392 11.4155 44.0604 11.9432L45.5597 13.5905C46.0359 14.1632 46.4735 14.7616 46.8853 15.3858L48.0307 17.297C48.3782 17.9533 48.6935 18.6226 48.9831 19.3111L49.7359 21.4088C49.9547 22.1167 50.1349 22.8374 50.2765 23.571L50.6046 25.7717C50.6819 26.5117 50.714 27.2517 50.714 27.9981L50.6046 30.2246C50.5274 30.9646 50.4245 31.6982 50.2765 32.4253L49.7359 34.5874C49.5172 35.2953 49.2662 36.0031 48.9831 36.6852L48.0307 38.6993C47.6832 39.3556 47.2971 39.9927 46.8853 40.6104L45.5597 42.4058C45.09 42.9785 44.5881 43.5319 44.0604 44.0531L42.4131 45.5524C41.8404 46.0286 41.2419 46.4662 40.6178 46.878L38.7066 48.0234C38.0503 48.3709 37.381 48.6862 36.6925 48.9757L34.6012 49.7351C33.8933 49.9538 33.1726 50.134 32.4391 50.2756L30.2384 50.6038C29.4983 50.681 28.7583 50.7131 28.0119 50.7131L25.7854 50.6038C25.0454 50.5265 24.3119 50.4236 23.5847 50.2756L21.4226 49.7351C20.7148 49.5163 20.0069 49.2653 19.3248 48.9822L17.3107 48.0298C16.6544 47.6823 16.0173 47.2962 15.3996 46.8844L13.6043 45.5588C13.0316 45.0827 12.4782 44.5872 11.9569 44.0595L10.4576 42.4122C9.98788 41.8395 9.54388 41.2411 9.13205 40.6169L7.98665 38.7057C7.63917 38.0494 7.32385 37.3801 7.03428 36.6916L6.26854 34.5939C6.04976 33.886 5.86958 33.1653 5.72801 32.4317L5.39983 30.231C5.32905 29.4846 5.29688 28.7446 5.29688 27.9981L5.40627 25.7717C5.48348 25.0317 5.58645 24.2981 5.73445 23.571L6.27497 21.4088C6.49376 20.701 6.74472 19.9932 7.02785 19.3111L7.98021 17.297C8.32769 16.6406 8.71378 16.0036 9.12561 15.3858L10.4512 13.5905C10.9209 13.0178 11.4228 12.4644 11.9505 11.9432L13.5978 10.4439C14.1705 9.96769 14.769 9.53011 15.3932 9.11828L17.3043 7.97288C17.9607 7.6254 18.6299 7.31009 19.3184 7.02053L21.4162 6.26765C22.124 6.04887 22.8447 5.86869 23.5783 5.72713L25.779 5.39894C26.519 5.32816 27.259 5.28955 28.0055 5.28955Z" stroke="white" stroke-width="2.17089" stroke-linecap="round" stroke-linejoin="round"/>
</g>
</g>
</g>
</g>
<mask id="mask14_184_942" style="mask-type:luminance" maskUnits="userSpaceOnUse" x="0" y="0" width="57" height="57">
<path d="M56.0089 0H0V56.0089H56.0089V0Z" fill="white"/>
</mask>
<g mask="url(#mask14_184_942)">
<mask id="mask15_184_942" style="mask-type:luminance" maskUnits="userSpaceOnUse" x="-1" y="-1" width="58" height="58">
<path d="M56.165 -0.159668H-0.191406V56.1967H56.165V-0.159668Z" fill="white"/>
</mask>
<g mask="url(#mask15_184_942)">
<mask id="mask16_184_942" style="mask-type:luminance" maskUnits="userSpaceOnUse" x="-1" y="-1" width="58" height="58">
<path d="M56.165 -0.160156H-0.191406V56.1962H56.165V-0.160156Z" fill="white"/>
</mask>
<g mask="url(#mask16_184_942)">
<mask id="mask17_184_942" style="mask-type:luminance" maskUnits="userSpaceOnUse" x="-1" y="-1" width="58" height="58">
<path d="M56.3647 -0.360352H-0.390625V56.395H56.3647V-0.360352Z" fill="white"/>
</mask>
<g mask="url(#mask17_184_942)">
<path d="M50.7206 28.938H42.0078" stroke="white" stroke-width="2.17089" stroke-linecap="round" stroke-linejoin="round"/>
</g>
</g>
</g>
<mask id="mask18_184_942" style="mask-type:luminance" maskUnits="userSpaceOnUse" x="-1" y="-1" width="58" height="58">
<path d="M56.165 -0.159668H-0.191406V56.1967H56.165V-0.159668Z" fill="white"/>
</mask>
<g mask="url(#mask18_184_942)">
<mask id="mask19_184_942" style="mask-type:luminance" maskUnits="userSpaceOnUse" x="-1" y="-1" width="58" height="58">
<path d="M56.165 -0.160156H-0.191406V56.1962H56.165V-0.160156Z" fill="white"/>
</mask>
<g mask="url(#mask19_184_942)">
<mask id="mask20_184_942" style="mask-type:luminance" maskUnits="userSpaceOnUse" x="-1" y="-1" width="58" height="58">
<path d="M56.3647 -0.360352H-0.390625V56.395H56.3647V-0.360352Z" fill="white"/>
</mask>
<g mask="url(#mask20_184_942)">
<path d="M50.7206 28.938H42.0078" stroke="white" stroke-width="2.17089" stroke-linecap="round" stroke-linejoin="round"/>
</g>
</g>
</g>
</g>
<mask id="mask21_184_942" style="mask-type:luminance" maskUnits="userSpaceOnUse" x="0" y="0" width="57" height="57">
<path d="M56.0089 0H0V56.0089H56.0089V0Z" fill="white"/>
</mask>
<g mask="url(#mask21_184_942)">
<mask id="mask22_184_942" style="mask-type:luminance" maskUnits="userSpaceOnUse" x="-1" y="-1" width="58" height="58">
<path d="M56.165 -0.159668H-0.191406V56.1967H56.165V-0.159668Z" fill="white"/>
</mask>
<g mask="url(#mask22_184_942)">
<mask id="mask23_184_942" style="mask-type:luminance" maskUnits="userSpaceOnUse" x="-1" y="-1" width="58" height="58">
<path d="M56.165 -0.160156H-0.191406V56.1962H56.165V-0.160156Z" fill="white"/>
</mask>
<g mask="url(#mask23_184_942)">
<mask id="mask24_184_942" style="mask-type:luminance" maskUnits="userSpaceOnUse" x="-1" y="-1" width="58" height="58">
<path d="M56.3647 -0.360352H-0.390625V56.395H56.3647V-0.360352Z" fill="white"/>
</mask>
<g mask="url(#mask24_184_942)">
<path d="M14.6299 28.9365H5.29297" stroke="white" stroke-width="2.17089" stroke-linecap="round" stroke-linejoin="round"/>
</g>
</g>
</g>
<mask id="mask25_184_942" style="mask-type:luminance" maskUnits="userSpaceOnUse" x="-1" y="-1" width="58" height="58">
<path d="M56.165 -0.159668H-0.191406V56.1967H56.165V-0.159668Z" fill="white"/>
</mask>
<g mask="url(#mask25_184_942)">
<mask id="mask26_184_942" style="mask-type:luminance" maskUnits="userSpaceOnUse" x="-1" y="-1" width="58" height="58">
<path d="M56.165 -0.160156H-0.191406V56.1962H56.165V-0.160156Z" fill="white"/>
</mask>
<g mask="url(#mask26_184_942)">
<mask id="mask27_184_942" style="mask-type:luminance" maskUnits="userSpaceOnUse" x="-1" y="-1" width="58" height="58">
<path d="M56.3647 -0.360352H-0.390625V56.395H56.3647V-0.360352Z" fill="white"/>
</mask>
<g mask="url(#mask27_184_942)">
<path d="M14.6299 28.9365H5.29297" stroke="white" stroke-width="2.17089" stroke-linecap="round" stroke-linejoin="round"/>
</g>
</g>
</g>
</g>
<mask id="mask28_184_942" style="mask-type:luminance" maskUnits="userSpaceOnUse" x="0" y="0" width="57" height="57">
<path d="M56.0089 0H0V56.0089H56.0089V0Z" fill="white"/>
</mask>
<g mask="url(#mask28_184_942)">
<mask id="mask29_184_942" style="mask-type:luminance" maskUnits="userSpaceOnUse" x="-1" y="-1" width="58" height="58">
<path d="M56.165 -0.159668H-0.191406V56.1967H56.165V-0.159668Z" fill="white"/>
</mask>
<g mask="url(#mask29_184_942)">
<mask id="mask30_184_942" style="mask-type:luminance" maskUnits="userSpaceOnUse" x="-1" y="-1" width="58" height="58">
<path d="M56.165 -0.160156H-0.191406V56.1962H56.165V-0.160156Z" fill="white"/>
</mask>
<g mask="url(#mask30_184_942)">
<mask id="mask31_184_942" style="mask-type:luminance" maskUnits="userSpaceOnUse" x="-1" y="-1" width="58" height="58">
<path d="M56.3647 -0.360352H-0.390625V56.395H56.3647V-0.360352Z" fill="white"/>
</mask>
<g mask="url(#mask31_184_942)">
<path d="M28.9375 14.6265V5.28955" stroke="white" stroke-width="2.17089" stroke-linecap="round" stroke-linejoin="round"/>
</g>
</g>
</g>
<mask id="mask32_184_942" style="mask-type:luminance" maskUnits="userSpaceOnUse" x="-1" y="-1" width="58" height="58">
<path d="M56.165 -0.159668H-0.191406V56.1967H56.165V-0.159668Z" fill="white"/>
</mask>
<g mask="url(#mask32_184_942)">
<mask id="mask33_184_942" style="mask-type:luminance" maskUnits="userSpaceOnUse" x="-1" y="-1" width="58" height="58">
<path d="M56.165 -0.160156H-0.191406V56.1962H56.165V-0.160156Z" fill="white"/>
</mask>
<g mask="url(#mask33_184_942)">
<mask id="mask34_184_942" style="mask-type:luminance" maskUnits="userSpaceOnUse" x="-1" y="-1" width="58" height="58">
<path d="M56.3647 -0.360352H-0.390625V56.395H56.3647V-0.360352Z" fill="white"/>
</mask>
<g mask="url(#mask34_184_942)">
<path d="M28.9375 14.6265V5.28955" stroke="white" stroke-width="2.17089" stroke-linecap="round" stroke-linejoin="round"/>
</g>
</g>
</g>
</g>
<mask id="mask35_184_942" style="mask-type:luminance" maskUnits="userSpaceOnUse" x="0" y="0" width="57" height="57">
<path d="M56.0089 0H0V56.0089H56.0089V0Z" fill="white"/>
</mask>
<g mask="url(#mask35_184_942)">
<mask id="mask36_184_942" style="mask-type:luminance" maskUnits="userSpaceOnUse" x="-1" y="-1" width="58" height="58">
<path d="M56.165 -0.159668H-0.191406V56.1967H56.165V-0.159668Z" fill="white"/>
</mask>
<g mask="url(#mask36_184_942)">
<mask id="mask37_184_942" style="mask-type:luminance" maskUnits="userSpaceOnUse" x="-1" y="-1" width="58" height="58">
<path d="M56.165 -0.160156H-0.191406V56.1962H56.165V-0.160156Z" fill="white"/>
</mask>
<g mask="url(#mask37_184_942)">
<mask id="mask38_184_942" style="mask-type:luminance" maskUnits="userSpaceOnUse" x="-1" y="-1" width="58" height="58">
<path d="M56.3647 -0.360352H-0.390625V56.395H56.3647V-0.360352Z" fill="white"/>
</mask>
<g mask="url(#mask38_184_942)">
<path d="M28.9375 50.7186V42.0059" stroke="white" stroke-width="2.17089" stroke-linecap="round" stroke-linejoin="round"/>
</g>
</g>
</g>
<mask id="mask39_184_942" style="mask-type:luminance" maskUnits="userSpaceOnUse" x="-1" y="-1" width="58" height="58">
<path d="M56.165 -0.159668H-0.191406V56.1967H56.165V-0.159668Z" fill="white"/>
</mask>
<g mask="url(#mask39_184_942)">
<mask id="mask40_184_942" style="mask-type:luminance" maskUnits="userSpaceOnUse" x="-1" y="-1" width="58" height="58">
<path d="M56.165 -0.160156H-0.191406V56.1962H56.165V-0.160156Z" fill="white"/>
</mask>
<g mask="url(#mask40_184_942)">
<mask id="mask41_184_942" style="mask-type:luminance" maskUnits="userSpaceOnUse" x="-1" y="-1" width="58" height="58">
<path d="M56.3647 -0.360352H-0.390625V56.395H56.3647V-0.360352Z" fill="white"/>
</mask>
<g mask="url(#mask41_184_942)">
<path d="M28.9375 50.7186V42.0059" stroke="white" stroke-width="2.17089" stroke-linecap="round" stroke-linejoin="round"/>
</g>
</g>
</g>
</g>
</svg>
